<mxfile host="Electron" modified="2024-04-05T00:01:21.055Z" agent="Mozilla/5.0 (Windows NT 10.0; Win64; x64) AppleWebKit/537.36 (KHTML, like Gecko) draw.io/24.1.0 Chrome/120.0.6099.109 Electron/28.1.0 Safari/537.36" etag="LjxUWVzfYo8MX-tz-ma4" version="24.1.0" type="device">
  <diagram name="Página-1" id="qp8mm3r9K0WYkFT7x3Oe">
    <mxGraphModel dx="1420" dy="830" grid="1" gridSize="10" guides="1" tooltips="1" connect="1" arrows="1" fold="1" page="1" pageScale="1" pageWidth="827" pageHeight="1169" background="#CCE5FF" math="0" shadow="0">
      <root>
        <mxCell id="0" />
        <mxCell id="1" parent="0" />
        <mxCell id="OaPDKYTb59JodhdbdPYT-1" value="&lt;b style=&quot;font-size: 16px;&quot;&gt;&lt;font style=&quot;font-size: 16px;&quot; color=&quot;#000000&quot; face=&quot;Comic Sans MS&quot;&gt;1&lt;br&gt;Hacer un programa para mostrar por pantalla los números del 1 al 10.&lt;br&gt;Importante: El programa no tiene ningún ingreso de datos.&lt;/font&gt;&lt;/b&gt;" style="text;whiteSpace=wrap;html=1;fontFamily=Architects Daughter;fontSource=https%3A%2F%2Ffonts.googleapis.com%2Fcss%3Ffamily%3DArchitects%2BDaughter;" vertex="1" parent="1">
          <mxGeometry x="120" y="20" width="560" height="90" as="geometry" />
        </mxCell>
        <mxCell id="OaPDKYTb59JodhdbdPYT-26" value="" style="group;aspect=fixed;" vertex="1" connectable="0" parent="1">
          <mxGeometry x="140" y="150" width="350" height="420" as="geometry" />
        </mxCell>
        <mxCell id="OaPDKYTb59JodhdbdPYT-3" value="" style="whiteSpace=wrap;html=1;aspect=fixed;rounded=0;labelBackgroundColor=none;strokeColor=#000000;strokeWidth=2;align=center;verticalAlign=middle;fontFamily=Helvetica;fontSize=12;fontColor=default;fillColor=#d5e8d4;container=0;" vertex="1" parent="OaPDKYTb59JodhdbdPYT-26">
          <mxGeometry x="70" y="70" width="280" height="280" as="geometry" />
        </mxCell>
        <mxCell id="OaPDKYTb59JodhdbdPYT-5" value="" style="ellipse;whiteSpace=wrap;html=1;rounded=0;labelBackgroundColor=none;strokeColor=#0F140C;strokeWidth=3;align=center;verticalAlign=middle;fontFamily=Helvetica;fontSize=12;fontColor=default;fillColor=#d5e8d4;container=0;" vertex="1" parent="OaPDKYTb59JodhdbdPYT-26">
          <mxGeometry y="100" width="140.00000000000003" height="140.00000000000003" as="geometry" />
        </mxCell>
        <mxCell id="OaPDKYTb59JodhdbdPYT-6" value="" style="endArrow=none;html=1;rounded=0;strokeColor=#0F140C;fontFamily=Helvetica;fontSize=12;fontColor=default;fillColor=#B2C9AB;strokeWidth=2;" edge="1" parent="OaPDKYTb59JodhdbdPYT-26">
          <mxGeometry width="50" height="50" relative="1" as="geometry">
            <mxPoint x="134.40000000000003" y="139.2" as="sourcePoint" />
            <mxPoint x="5.600000000000023" y="139.2" as="targetPoint" />
          </mxGeometry>
        </mxCell>
        <mxCell id="OaPDKYTb59JodhdbdPYT-7" value="" style="endArrow=none;html=1;rounded=0;strokeColor=#0F140C;fontFamily=Helvetica;fontSize=12;fontColor=default;fillColor=#B2C9AB;exitX=0.264;exitY=0.952;exitDx=0;exitDy=0;exitPerimeter=0;strokeWidth=2;" edge="1" parent="OaPDKYTb59JodhdbdPYT-26" source="OaPDKYTb59JodhdbdPYT-5">
          <mxGeometry width="50" height="50" relative="1" as="geometry">
            <mxPoint x="33.60000000000002" y="184" as="sourcePoint" />
            <mxPoint x="39.19999999999999" y="139.2" as="targetPoint" />
          </mxGeometry>
        </mxCell>
        <mxCell id="OaPDKYTb59JodhdbdPYT-8" value="" style="endArrow=none;html=1;rounded=0;strokeColor=#0F140C;fontFamily=Helvetica;fontSize=12;fontColor=default;fillColor=#B2C9AB;exitX=0.728;exitY=0.948;exitDx=0;exitDy=0;exitPerimeter=0;strokeWidth=2;" edge="1" parent="OaPDKYTb59JodhdbdPYT-26" source="OaPDKYTb59JodhdbdPYT-5">
          <mxGeometry width="50" height="50" relative="1" as="geometry">
            <mxPoint x="84" y="195.20000000000005" as="sourcePoint" />
            <mxPoint x="101.91999999999996" y="139.2" as="targetPoint" />
          </mxGeometry>
        </mxCell>
        <mxCell id="OaPDKYTb59JodhdbdPYT-19" value="&lt;font face=&quot;Comic Sans MS&quot; color=&quot;#000000&quot;&gt;&lt;span style=&quot;font-size: 17px;&quot;&gt;&lt;b&gt;x&lt;/b&gt;&lt;/span&gt;&lt;/font&gt;" style="text;strokeColor=none;align=center;fillColor=none;html=1;verticalAlign=middle;whiteSpace=wrap;rounded=0;fontFamily=Architects Daughter;fontSource=https://fonts.googleapis.com/css?family=Architects+Daughter;container=0;" vertex="1" parent="OaPDKYTb59JodhdbdPYT-26">
          <mxGeometry x="55" y="110" width="30" height="30" as="geometry" />
        </mxCell>
        <mxCell id="OaPDKYTb59JodhdbdPYT-20" value="&lt;font size=&quot;1&quot; style=&quot;&quot; face=&quot;Comic Sans MS&quot; color=&quot;#000000&quot;&gt;&lt;b style=&quot;font-size: 12px;&quot;&gt;x = 1&lt;/b&gt;&lt;/font&gt;" style="text;strokeColor=none;align=center;fillColor=none;html=1;verticalAlign=middle;whiteSpace=wrap;rounded=0;fontFamily=Architects Daughter;fontSource=https://fonts.googleapis.com/css?family=Architects+Daughter;fontSize=14;container=0;" vertex="1" parent="OaPDKYTb59JodhdbdPYT-26">
          <mxGeometry y="155" width="40" height="30" as="geometry" />
        </mxCell>
        <mxCell id="OaPDKYTb59JodhdbdPYT-21" value="&lt;font size=&quot;1&quot; style=&quot;&quot; face=&quot;Comic Sans MS&quot; color=&quot;#000000&quot;&gt;&lt;b style=&quot;font-size: 12px;&quot;&gt;x++&lt;/b&gt;&lt;/font&gt;" style="text;strokeColor=none;align=center;fillColor=none;html=1;verticalAlign=middle;whiteSpace=wrap;rounded=0;fontFamily=Architects Daughter;fontSource=https://fonts.googleapis.com/css?family=Architects+Daughter;fontSize=14;container=0;" vertex="1" parent="OaPDKYTb59JodhdbdPYT-26">
          <mxGeometry x="100" y="158" width="40" height="30" as="geometry" />
        </mxCell>
        <mxCell id="OaPDKYTb59JodhdbdPYT-22" value="&lt;font size=&quot;1&quot; style=&quot;&quot; face=&quot;Comic Sans MS&quot; color=&quot;#000000&quot;&gt;&lt;b style=&quot;font-size: 14px;&quot;&gt;x &amp;lt; 11&lt;/b&gt;&lt;/font&gt;" style="text;strokeColor=none;align=center;fillColor=none;html=1;verticalAlign=middle;whiteSpace=wrap;rounded=0;fontFamily=Architects Daughter;fontSource=https://fonts.googleapis.com/css?family=Architects+Daughter;fontSize=14;container=0;" vertex="1" parent="OaPDKYTb59JodhdbdPYT-26">
          <mxGeometry x="40" y="155" width="50" height="30" as="geometry" />
        </mxCell>
        <mxCell id="OaPDKYTb59JodhdbdPYT-12" value="" style="strokeWidth=2;html=1;shape=mxgraph.flowchart.start_2;whiteSpace=wrap;rounded=0;labelBackgroundColor=none;strokeColor=#000000;align=center;verticalAlign=middle;fontFamily=Helvetica;fontSize=12;fontColor=default;fillColor=#d5e8d4;container=0;" vertex="1" parent="OaPDKYTb59JodhdbdPYT-26">
          <mxGeometry x="190" width="40" height="40" as="geometry" />
        </mxCell>
        <mxCell id="OaPDKYTb59JodhdbdPYT-14" value="&lt;font color=&quot;#000000&quot; size=&quot;1&quot; face=&quot;Comic Sans MS&quot;&gt;&lt;b style=&quot;font-size: 17px;&quot;&gt;I&lt;/b&gt;&lt;/font&gt;" style="text;strokeColor=none;align=center;fillColor=none;html=1;verticalAlign=middle;whiteSpace=wrap;rounded=0;fontFamily=Architects Daughter;fontSource=https%3A%2F%2Ffonts.googleapis.com%2Fcss%3Ffamily%3DArchitects%2BDaughter;container=0;" vertex="1" parent="OaPDKYTb59JodhdbdPYT-26">
          <mxGeometry x="195" y="5" width="30" height="30" as="geometry" />
        </mxCell>
        <mxCell id="OaPDKYTb59JodhdbdPYT-13" value="" style="strokeWidth=2;html=1;shape=mxgraph.flowchart.start_2;whiteSpace=wrap;rounded=0;labelBackgroundColor=none;strokeColor=#000000;align=center;verticalAlign=middle;fontFamily=Helvetica;fontSize=12;fontColor=default;fillColor=#d5e8d4;container=0;" vertex="1" parent="OaPDKYTb59JodhdbdPYT-26">
          <mxGeometry x="190" y="380" width="40" height="40" as="geometry" />
        </mxCell>
        <mxCell id="OaPDKYTb59JodhdbdPYT-15" value="&lt;font color=&quot;#000000&quot; size=&quot;1&quot; face=&quot;Comic Sans MS&quot;&gt;&lt;b style=&quot;font-size: 17px;&quot;&gt;F&lt;/b&gt;&lt;/font&gt;" style="text;strokeColor=none;align=center;fillColor=none;html=1;verticalAlign=middle;whiteSpace=wrap;rounded=0;fontFamily=Architects Daughter;fontSource=https://fonts.googleapis.com/css?family=Architects+Daughter;container=0;" vertex="1" parent="OaPDKYTb59JodhdbdPYT-26">
          <mxGeometry x="195" y="385" width="30" height="30" as="geometry" />
        </mxCell>
        <mxCell id="OaPDKYTb59JodhdbdPYT-25" value="" style="group;aspect=fixed;" vertex="1" connectable="0" parent="OaPDKYTb59JodhdbdPYT-26">
          <mxGeometry x="170" y="158" width="150" height="50" as="geometry" />
        </mxCell>
        <mxCell id="OaPDKYTb59JodhdbdPYT-23" value="" style="shape=trapezoid;perimeter=trapezoidPerimeter;whiteSpace=wrap;html=1;fixedSize=1;rounded=0;labelBackgroundColor=none;strokeColor=#0F140C;strokeWidth=2;align=center;verticalAlign=middle;fontFamily=Helvetica;fontSize=12;fontColor=default;fillColor=#d5e8d4;" vertex="1" parent="OaPDKYTb59JodhdbdPYT-25">
          <mxGeometry width="150" height="50" as="geometry" />
        </mxCell>
        <mxCell id="OaPDKYTb59JodhdbdPYT-24" value="&lt;font size=&quot;1&quot; face=&quot;Comic Sans MS&quot; color=&quot;#000000&quot; style=&quot;&quot;&gt;&lt;b style=&quot;font-size: 18px;&quot;&gt;x&lt;/b&gt;&lt;/font&gt;" style="text;strokeColor=none;align=center;fillColor=none;html=1;verticalAlign=middle;whiteSpace=wrap;rounded=0;fontFamily=Architects Daughter;fontSource=https%3A%2F%2Ffonts.googleapis.com%2Fcss%3Ffamily%3DArchitects%2BDaughter;" vertex="1" parent="OaPDKYTb59JodhdbdPYT-25">
          <mxGeometry x="40" y="10" width="60" height="30" as="geometry" />
        </mxCell>
        <mxCell id="OaPDKYTb59JodhdbdPYT-28" value="" style="line;strokeWidth=2;direction=south;html=1;hachureGap=4;fontFamily=Architects Daughter;fontSource=https://fonts.googleapis.com/css?family=Architects+Daughter;strokeColor=#000000;" vertex="1" parent="OaPDKYTb59JodhdbdPYT-26">
          <mxGeometry x="205" y="40" width="10" height="30" as="geometry" />
        </mxCell>
        <mxCell id="OaPDKYTb59JodhdbdPYT-27" value="" style="line;strokeWidth=2;direction=south;html=1;hachureGap=4;fontFamily=Architects Daughter;fontSource=https://fonts.googleapis.com/css?family=Architects+Daughter;strokeColor=#000000;" vertex="1" parent="OaPDKYTb59JodhdbdPYT-26">
          <mxGeometry x="205" y="350" width="10" height="30" as="geometry" />
        </mxCell>
      </root>
    </mxGraphModel>
  </diagram>
</mxfile>
